<svg width="207" height="206" viewBox="0 0 207 206" fill="none" xmlns="http://www.w3.org/2000/svg">
<path d="M103.5 0C46.3304 0 0 46.1066 0 103C0 159.893 46.3304 206 103.5 206C160.67 206 207 159.893 207 103C207 46.1066 160.67 0 103.5 0ZM144.26 51.9869H132.141C120.211 51.9869 116.485 59.3655 116.485 66.9313V84.872H143.169L138.916 112.513H116.522V179.37H86.4884V112.513H62.0624V84.872H86.4884V63.7851C86.4884 39.8142 100.828 26.5553 122.807 26.5553C133.346 26.5553 144.335 28.428 144.335 28.428V51.9869H144.26Z" fill="#435947"/>
</svg>
