<svg width="207" height="206" viewBox="0 0 207 206" fill="none" xmlns="http://www.w3.org/2000/svg">
<path d="M104.027 83.2986C93.1126 83.2986 84.2305 92.1379 84.2305 103C84.2305 113.862 93.1126 122.701 104.027 122.701C114.942 122.701 123.824 113.862 123.824 103C123.824 92.1379 114.942 83.2986 104.027 83.2986Z" fill="#435947"/>
<path d="M128.567 52.2864H78.4729C64.2088 52.2864 52.5791 63.8598 52.5791 78.0551V127.907C52.5791 142.102 64.1711 153.676 78.4729 153.676H128.567C142.831 153.676 154.461 142.102 154.461 127.907V78.0551C154.461 63.8598 142.831 52.2864 128.567 52.2864ZM104.028 133.75C86.9787 133.75 73.1286 119.967 73.1286 103C73.1286 86.0329 86.9787 72.2496 104.028 72.2496C121.077 72.2496 134.927 86.0329 134.927 103C134.927 119.967 121.077 133.75 104.028 133.75ZM136.734 77.4933C132.669 77.4933 129.395 74.1973 129.395 70.1896C129.395 66.182 132.707 62.886 136.734 62.886C140.761 62.886 144.073 66.182 144.073 70.1896C144.073 74.1973 140.761 77.4933 136.734 77.4933Z" fill="#435947"/>
<path d="M103.5 0C46.3304 0 0 46.1066 0 103C0 159.893 46.3304 206 103.5 206C160.67 206 207 159.893 207 103C207 46.1066 160.67 0 103.5 0ZM166.24 127.907C166.24 148.582 149.341 165.399 128.528 165.399H78.4342C57.6589 165.399 40.7602 148.582 40.7602 127.907V78.0553C40.7602 57.3804 57.6589 40.5633 78.4342 40.5633H128.528C149.303 40.5633 166.24 57.3804 166.24 78.0553V127.907Z" fill="#435947"/>
</svg>
