<svg width="207" height="206" viewBox="0 0 207 206" fill="none" xmlns="http://www.w3.org/2000/svg">
<path d="M104.518 94.1605L76.8555 54.7583H62.0645L96.3888 103.599L100.679 109.742L130.073 151.541H144.827L108.846 100.303L104.518 94.1605Z" fill="#435947"/>
<path d="M103.504 0C46.3343 0 0.00390625 46.1066 0.00390625 103C0.00390625 159.893 46.3343 206 103.504 206C160.674 206 207.004 159.893 207.004 103C207.004 46.1066 160.674 0 103.504 0ZM125.559 158.433L95.8261 115.397L58.6038 158.433H48.9688L91.5356 109.217L48.9688 47.5673H81.449L109.601 88.3178L144.829 47.5673H154.464L113.892 94.4978L158.039 158.433H125.559Z" fill="#435947"/>
</svg>
