<svg width="206" height="206" viewBox="0 0 206 206" fill="none" xmlns="http://www.w3.org/2000/svg">
<g clip-path="url(#clip0_1671_3290)">
<path d="M184.338 166.397C152.17 207.716 92.5921 218.474 48.0543 190.231C-2.95646 157.885 -15.7574 88.468 21.2863 40.2825C55.6858 -4.45668 119.947 -13.3585 165.138 20.7855C210.82 55.3008 219.614 121.086 184.338 166.397ZM135.826 79.9933C136.187 79.6516 133.847 72.8889 133.409 71.8268C122.294 45.0509 87.1442 36.1974 61.3529 44.6981C27.4881 55.8578 13.8033 94.2651 42.8032 119.355C44.051 120.436 46.7359 121.806 47.2781 123.422C47.8872 125.249 46.5317 127.488 46.06 129.304C45.5624 131.217 44.452 134.834 44.4446 136.639C44.4409 137.623 45.1242 138.425 46.1306 138.321C50.2008 136.334 53.9256 133.579 57.9586 131.551C58.6493 131.202 59.5294 130.63 60.2685 130.518C63.6553 130.006 68.8359 132.327 72.505 132.736C73.9644 132.899 76.2186 133.044 77.7004 133.111C79.9842 133.215 82.2979 133.021 84.578 133.103C79.858 120.335 84.1138 106.179 92.9263 96.3299C101.237 87.0419 115.843 80.8177 128.206 79.9896C129.398 79.9116 135.548 80.257 135.826 79.997V79.9933ZM127.203 83.8073C102.118 86.2955 78.6288 109.525 90.453 135.584C98.779 153.937 120.341 161.327 139.366 159.846C142.615 159.593 146.069 157.922 149.051 157.629C150.131 157.521 151.086 157.822 152.055 158.282C154.985 159.667 158.654 162.924 161.555 164.005C162.502 164.358 163.917 164.722 164.072 163.363C164.247 161.847 162.104 157.328 161.855 155.166C161.358 150.884 162.528 151.549 164.979 149.436C177.215 138.882 183.083 123.919 176.008 108.333C167.764 90.1726 146.28 81.9133 127.203 83.8073Z" fill="#435947"/>
<path d="M61.8142 65.5842C68.302 64.1953 73.0703 70.9245 69.6537 76.7662C65.4907 83.8854 53.5885 78.7902 56.5334 70.3303C57.2873 68.1615 59.5712 66.067 61.8142 65.5842Z" fill="#435947"/>
<path d="M98.59 65.5953C103.05 64.8117 107.031 68.0761 107.529 72.4805C108.305 79.3509 98.6531 82.9235 94.2413 77.2044C90.9844 72.9819 93.3389 66.5163 98.59 65.5953Z" fill="#435947"/>
<path d="M116.775 103.096C123.237 101.719 127.263 110.509 121.837 114.468C117.188 117.859 110.967 114.134 111.714 108.426C112.029 106.019 114.443 103.594 116.775 103.096Z" fill="#435947"/>
<path d="M147.239 103.104C150.362 102.58 154.135 104.935 154.685 108.114C155.755 114.301 147.952 118.49 143.629 113.603C140.413 109.971 142.519 103.895 147.239 103.104Z" fill="#435947"/>
</g>
<defs>
<clipPath id="clip0_1671_3290">
<rect width="206" height="206" fill="white"/>
</clipPath>
</defs>
</svg>
