<svg width="100" height="100" viewBox="0 0 100 100" fill="none" xmlns="http://www.w3.org/2000/svg">
<g filter="url(#filter0_d_1161_717)">
<path d="M90 50.1216C90 39.136 81.3888 30.1632 70.5472 29.5808C70.0288 18.6784 61.0304 10 50 10C38.9696 10 29.9712 18.6784 29.4528 29.5808C18.6112 30.16 10 39.136 10 50.1216C10 61.1072 18.6176 70.0896 29.4656 70.6624C30.1056 81.4496 39.0528 90 50 90C60.9472 90 69.8944 81.4496 70.5344 70.6624C81.3824 70.0864 90 61.1104 90 50.1216Z" fill="#DB5D34"/>
<path d="M54.7988 63.6001L41.829 49.4512L54.7988 36.4815" stroke="white" stroke-width="7" stroke-linecap="round"/>
</g>
<defs>
<filter id="filter0_d_1161_717" x="0" y="0" width="100" height="100" filterUnits="userSpaceOnUse" color-interpolation-filters="sRGB">
<feFlood flood-opacity="0" result="BackgroundImageFix"/>
<feColorMatrix in="SourceAlpha" type="matrix" values="0 0 0 0 0 0 0 0 0 0 0 0 0 0 0 0 0 0 127 0" result="hardAlpha"/>
<feOffset/>
<feGaussianBlur stdDeviation="5"/>
<feComposite in2="hardAlpha" operator="out"/>
<feColorMatrix type="matrix" values="0 0 0 0 0.916037 0 0 0 0 0.676202 0 0 0 0 0.59816 0 0 0 1 0"/>
<feBlend mode="normal" in2="BackgroundImageFix" result="effect1_dropShadow_1161_717"/>
<feBlend mode="normal" in="SourceGraphic" in2="effect1_dropShadow_1161_717" result="shape"/>
</filter>
</defs>
</svg>
