<svg width="60" height="60" viewBox="0 0 60 60" fill="none" xmlns="http://www.w3.org/2000/svg">
<path d="M29.9088 1.15422e-05C38.148 1.1907e-05 44.8776 6.45841 45.3144 14.5896C53.4912 14.9784 60 21.7272 60 30C60 38.2728 53.4912 45.0216 45.3144 45.4104C44.88 53.5416 38.148 60 29.9088 60C21.6696 60 14.9328 53.5368 14.5032 45.4008C6.4128 44.9208 4.63405e-07 38.2104 8.17692e-07 30C1.17198e-06 21.7896 6.4128 15.0792 14.5032 14.5992C14.9352 6.46321 21.6672 1.11773e-05 29.9088 1.15422e-05Z" fill="#DB5D34"/>
<path d="M22.1731 38.0722L30.4005 29.0968L22.1731 20.8694" stroke="white" stroke-width="4" stroke-linecap="round"/>
<path d="M38.7092 38.0722L30.4818 29.0968L38.7092 20.8694" stroke="white" stroke-width="4" stroke-linecap="round"/>
</svg>
